<?xml version="1.0" encoding="UTF-8"?>
<svg id="Capa_1" xmlns="http://www.w3.org/2000/svg" version="1.1" viewBox="0 0 32 32">
  <!-- Generator: Adobe Illustrator 29.0.0, SVG Export Plug-In . SVG Version: 2.1.0 Build 186)  -->
  <defs>
    <style>
      .st0 {
        fill: #fff;
      }

      .st1 {
        fill: #399be2;
      }
    </style>
  </defs>
  <rect class="st1" x="0" y="0" width="31.9" height="32" rx="3.3" ry="3.3"/>
  <g id="HQkmTZ.tif">
    <g>
      <path class="st0" d="M28.6,15.6v.4l-1.8,2.8c-.6.5-1.5,0-1.3-.9l1.3-2.1c0-.2-1.1-1.6-1.3-1.9-.5-1,.8-1.7,1.4-.8l1.7,2.6Z"/>
      <path class="st0" d="M11.1,5.4h9.8c1.3.2,2.4,1.2,2.5,2.6v15.8c-.2,1.3-1.2,2.4-2.6,2.5h-9.5c-1.3-.2-2.4-1.2-2.5-2.5V7.8c.2-1.3,1.1-2.2,2.4-2.5ZM10.6,7.3c-.2.2-.3.5-.4.8v15.5c0,.6.6,1.1,1.1,1.2h9.2c.6,0,1.1-.6,1.2-1.2v-15.5c0-.6-.6-1.1-1.2-1.2h-9.2c-.3,0-.6.2-.8.4Z"/>
      <path class="st0" d="M5.6,12.7c.7-.1,1.1.5.8,1.2s-1,1.3-1.3,1.9c0,.2,1.1,1.6,1.3,2,.4.9-.7,1.7-1.3.8s-1.4-1.9-1.6-2.4-.1-.5,0-.8c.2-.5,1.2-1.9,1.6-2.4s.3-.3.5-.4Z"/>
    </g>
  </g>
</svg>