<svg width="24" height="24" viewBox="0 0 24 24" fill="none" xmlns="http://www.w3.org/2000/svg">
<g clip-path="url(#clip0_10_4715)">
<path d="M23.4204 11.8099V12.1699L21.7204 14.7099C21.1404 15.2099 20.3204 14.6199 20.5604 13.9099L21.7904 11.9699C21.7704 11.7899 20.7704 10.5199 20.6204 10.1899C20.1904 9.28994 21.3204 8.65994 21.8704 9.43994L23.4204 11.8099Z" fill="#00304D"/>
<path d="M0 12.1797V11.8197L1.7 9.27975C2.28 8.77975 3.1 9.36975 2.86 10.0797L1.63 12.0197C1.65 12.1997 2.65 13.4697 2.8 13.7997C3.23 14.6997 2.1 15.3297 1.55 14.5497L0 12.1797Z" fill="#00304D"/>
<path d="M5.97094 0H17.1709C18.6909 0.19 19.8709 1.43 20.0309 2.94V21.09C19.8409 22.63 18.6209 23.84 17.0709 23.99H6.12094C4.60094 23.8 3.40094 22.61 3.21094 21.09V2.84C3.44094 1.39 4.53094 0.27 5.97094 0ZM5.44094 2.21C5.22094 2.43 5.05094 2.8 5.02094 3.12V20.87C5.06094 21.51 5.66094 22.12 6.29094 22.19H16.8909C17.5709 22.13 18.1609 21.54 18.2109 20.87V3.12C18.1509 2.44 17.5609 1.85 16.8909 1.8H6.35094C6.04094 1.82 5.66094 2 5.44094 2.22V2.21Z" fill="#00304D"/>
</g>
<defs>
<clipPath id="clip0_10_4715">
<rect width="23.42" height="24" fill="white"/>
</clipPath>
</defs>
</svg>
