<svg width="18" height="24" viewBox="0 0 18 24" fill="none" xmlns="http://www.w3.org/2000/svg">
<g clip-path="url(#clip0_10_4708)">
<path d="M8.28015 5.77003C8.44015 5.72003 8.60015 5.66003 8.77015 5.63003C9.76015 5.48003 10.9902 6.05003 11.3102 7.03003C11.4402 6.97003 11.5602 6.90003 11.7002 6.85003C12.7002 6.49003 13.9602 6.96003 14.4502 7.91003C14.5202 8.05003 14.5602 8.21003 14.6302 8.35003C15.6502 7.94003 16.9502 8.22003 17.5702 9.16003C17.8402 9.57003 17.9502 10.25 17.9702 10.73C18.0202 11.9 17.9502 13.15 17.9302 14.32C17.9002 16.02 17.8902 17.72 17.8602 19.43C17.8302 21.24 16.6402 22.83 14.9602 23.47C13.8002 23.91 12.4202 23.74 11.2002 23.74C10.0902 23.74 8.94015 23.78 7.83015 23.72C6.38015 23.65 5.04015 22.9 4.25015 21.68L0.110152 13.96C-0.389848 12.4 0.850152 10.81 2.49015 10.93C2.90015 10.96 3.29015 11.15 3.63015 11.37C3.66015 10.48 3.64015 9.58003 3.65015 8.68003C3.66015 7.00003 3.69015 5.31003 3.70015 3.63003C3.71015 2.64003 3.55015 1.63003 4.24015 0.830031C5.35015 -0.449969 7.39015 -0.209969 8.10015 1.36003C8.40015 2.02003 8.29015 2.52003 8.29015 3.21003C8.29015 4.06003 8.31015 4.92003 8.27015 5.77003H8.28015ZM14.7102 10.31C14.7102 10.31 14.7302 10.36 14.7202 10.38C14.6302 11.23 14.7202 12.09 14.6802 12.94C14.6802 13.21 14.7002 13.49 14.4902 13.68C14.0302 14.09 13.3602 13.7 13.3102 13.13C13.2702 12.66 13.3502 12.05 13.3602 11.56C13.3802 10.73 13.4402 9.70003 13.3602 8.88003C13.2602 7.89003 11.5702 7.79003 11.4802 8.97003C11.4002 9.88003 11.5202 10.9 11.4602 11.82C11.4002 12.1 11.5202 12.32 11.3402 12.57C10.9702 13.11 10.1602 12.87 10.1002 12.25C10.0502 11.73 10.1202 11.07 10.1202 10.54C10.1202 9.95003 10.1202 9.35003 10.1202 8.76003C10.1202 8.23003 10.2402 7.50003 9.72015 7.15003C9.29015 6.86003 8.64015 6.99003 8.38015 7.44003C8.26015 7.65003 8.30015 7.72003 8.29015 7.95003C8.23015 9.11003 8.29015 10.29 8.22015 11.46C8.22015 11.63 8.22015 11.71 8.10015 11.85C7.77015 12.23 7.05015 12.23 6.90015 11.7C6.80015 11.35 6.88015 10.76 6.89015 10.39C6.95015 8.04003 7.03015 5.68003 6.98015 3.33003C6.96015 2.60003 7.14015 1.50003 6.14015 1.40003C5.58015 1.34003 5.12015 1.72003 5.08015 2.29003C5.01015 3.19003 5.11015 4.18003 5.06015 5.09003C4.95015 8.24003 5.06015 11.4 4.94015 14.55C4.94015 14.76 4.98015 14.91 4.87015 15.09C4.64015 15.46 4.04015 15.51 3.76015 15.16C3.51015 14.84 3.63015 14.06 3.64015 13.66C3.64015 13.44 3.68015 13.18 3.56015 13C3.32015 12.62 2.64015 12.24 2.19015 12.3C1.81015 12.34 1.38015 12.76 1.39015 13.15C1.39015 13.57 1.98015 14.64 2.19015 15.06C2.85015 16.34 3.61015 17.59 4.32015 18.85C4.70015 19.53 5.05015 20.26 5.47015 20.91C6.45015 22.46 7.64015 22.3 9.28015 22.37C10.4902 22.42 11.7102 22.45 12.9202 22.41C14.1302 22.37 14.9402 22.24 15.7602 21.32C16.5802 20.4 16.5302 19.48 16.5402 18.32C16.5702 16.31 16.5602 14.3 16.5702 12.29C16.5702 11.69 16.6402 10.98 16.5902 10.39C16.5002 9.40003 15.1002 9.24003 14.7902 10.14C14.7702 10.21 14.7502 10.26 14.7302 10.32L14.7102 10.31Z" fill="#00304D"/>
<path d="M17.2102 3.32032C17.2702 3.42032 17.2102 3.57032 17.2102 3.57032L15.7702 5.31032C15.2802 5.65032 14.5802 5.25032 14.7902 4.76032L15.8302 3.43032C15.8202 3.30032 14.9702 2.43032 14.8402 2.21032C14.4702 1.59032 15.4302 1.16032 15.9002 1.69032L17.2102 3.32032Z" fill="#00304D"/>
<path d="M14.97 3.32032C15.03 3.42032 14.97 3.57032 14.97 3.57032L13.53 5.31032C13.04 5.65032 12.34 5.25032 12.55 4.76032L13.59 3.43032C13.58 3.30032 12.73 2.43032 12.6 2.21032C12.23 1.59032 13.19 1.16032 13.66 1.69032L14.97 3.32032Z" fill="#00304D"/>
</g>
<defs>
<clipPath id="clip0_10_4708">
<rect width="17.98" height="23.79" fill="white"/>
</clipPath>
</defs>
</svg>
