<?xml version="1.0" encoding="UTF-8"?>
<svg id="Capa_1" xmlns="http://www.w3.org/2000/svg" version="1.1" viewBox="0 0 32 32">
  <!-- Generator: Adobe Illustrator 29.0.0, SVG Export Plug-In . SVG Version: 2.1.0 Build 186)  -->
  <defs>
    <style>
      .st0 {
        fill: #fff;
      }

      .st1 {
        fill: #399be2;
      }
    </style>
  </defs>
  <rect class="st1" x="0" y="0" width="31.9" height="32" rx="3.3" ry="3.3"/>
  <g>
    <path class="st0" d="M13.7,13.8c.6-1,2.1-1.1,2.8,0s.2.4.2.4v.8c.1,0,.2-.3.3-.4,1.1-1.3,3-.3,2.8,1.3.2-.2.2-.5.5-.7,1.1-1,2.6-.2,2.7,1.2.2,3.2-.2,6.7,0,9.9,0,.9-.6,1.6-1.6,1.7h-8.4c-1.2-.1-1.6-1.8-2-2.7-.8-1.8-1.8-3.5-2.8-5.1s-1.6-2.2-1.7-3.1c0-1.3,1.5-1.9,2.5-1.2l1.6,1.6v-9.1c0-.9,1.1-1.6,2-1.4s1.2.7,1.2,1.2v5.7Z"/>
    <path class="st0" d="M19,7.7l-3.9,3.1c-.6.2-.4-1-.4-1.3l2.5-2.1-2.4-2c-.1-.2-.1-.9,0-1.1s0-.3.3-.3l3.9,3.1c.1.1.2.3,0,.5Z"/>
    <path class="st0" d="M18.4,4.1c.2,0,.4.1.6.3,1.2.9,2.3,1.9,3.5,2.8.1.1.2.2.1.4l-3.8,3.2c-.1.1-.4.1-.5-.1s0-.8,0-1,0-.1,0-.2l2.4-2-2.4-2c0,0,0-1,0-1.1s0-.2.1-.2Z"/>
  </g>
</svg>